HIERARCHY
ROOT Hips
{
	OFFSET -3.958830 18.904000 13.208200
	CHANNELS 6 Xposition Yposition Zposition Zrotation Yrotation Xrotation 
	JOINT LHipJoint
	{
		OFFSET 0.000000 0.000000 0.000000
		CHANNELS 3 Zrotation Yrotation Xrotation
		JOINT LeftUpLeg
		{
			OFFSET 1.800000 -1.400000 0.085000
			CHANNELS 3 Zrotation Yrotation Xrotation
			JOINT LeftLeg
			{
				OFFSET 2.215000 -6.000000 0.000000
				CHANNELS 3 Zrotation Yrotation Xrotation
				JOINT LeftFoot
				{
					OFFSET 2.500000 -6.900000 0.000000
					CHANNELS 3 Zrotation Yrotation Xrotation
					JOINT LeftToeBase
					{
						OFFSET 0.200000 -0.500000 1.950000
						CHANNELS 3 Zrotation Yrotation Xrotation
						End Site
						{
							OFFSET 0.000000 0.000000 0.000000
						}
					}
				}
			}
		}
	}
	JOINT RHipJoint
	{
		OFFSET 0.000000 0.000000 0.000000
		CHANNELS 3 Zrotation Yrotation Xrotation
		JOINT RightUpLeg
		{
			OFFSET -1.800000 -1.400000 0.085000
			CHANNELS 3 Zrotation Yrotation Xrotation
			JOINT RightLeg
			{
				OFFSET -2.215000 -6.000000 0.000000
				CHANNELS 3 Zrotation Yrotation Xrotation
				JOINT RightFoot
				{
					OFFSET -2.500000 -6.900000 0.000000
					CHANNELS 3 Zrotation Yrotation Xrotation
					JOINT RightToeBase
					{
						OFFSET -0.200000 -0.500000 1.950000
						CHANNELS 3 Zrotation Yrotation Xrotation
						End Site
						{
							OFFSET 0.000000 0.000000 0.000000
						}
					}
				}
			}
		}
	}
	JOINT LowerBack
	{
		OFFSET 0.000000 0.000000 0.000000
		CHANNELS 3 Zrotation Yrotation Xrotation
		JOINT Spine
		{
			OFFSET -0.087000 1.940000 -0.288900
			CHANNELS 3 Zrotation Yrotation Xrotation
			JOINT Spine1
			{
				OFFSET 0.000000 1.950000 0.060000
				CHANNELS 3 Zrotation Yrotation Xrotation
				JOINT Neck
				{
					OFFSET 0.000000 0.000000 0.000000
					CHANNELS 3 Zrotation Yrotation Xrotation
					JOINT Neck1
					{
						OFFSET 0.000000 1.600000 0.340000
						CHANNELS 3 Zrotation Yrotation Xrotation
						JOINT Head
						{
							OFFSET 0.000000 1.667000 -0.240000
							CHANNELS 3 Zrotation Yrotation Xrotation
							End Site
							{
								OFFSET 0.000000 0.000000 0.000000
							}
						}
					}
				}
				JOINT LeftShoulder
				{
					OFFSET 0.000000 0.000000 0.000000
					CHANNELS 3 Zrotation Yrotation Xrotation
					JOINT LeftArm
					{
						OFFSET 2.700000 1.550000 -0.730000
						CHANNELS 3 Zrotation Yrotation Xrotation
						JOINT LeftForeArm
						{
							OFFSET 5.450000 0.000000 0.000000
							CHANNELS 3 Zrotation Yrotation Xrotation
							JOINT LeftHand
							{
								OFFSET 3.450000 0.000000 0.000000
								CHANNELS 3 Zrotation Yrotation Xrotation
								JOINT LeftHandIndex1
								{
									OFFSET 0.750000 0.000000 0.000000
									CHANNELS 3 Zrotation Yrotation Xrotation
									End Site
									{
										OFFSET 0.000000 0.000000 0.000000
									}
								}
							}
						}
					}
				}
				JOINT RightShoulder
				{
					OFFSET 0.000000 0.000000 0.000000
					CHANNELS 3 Zrotation Yrotation Xrotation
					JOINT RightArm
					{
						OFFSET -2.700000 1.550000 -0.730000
						CHANNELS 3 Zrotation Yrotation Xrotation
						JOINT RightForeArm
						{
							OFFSET -5.450000 0.000000 0.000000
							CHANNELS 3 Zrotation Yrotation Xrotation
							JOINT RightHand
							{
								OFFSET -3.450000 0.000000 0.000000
								CHANNELS 3 Zrotation Yrotation Xrotation
								JOINT RightHandIndex1
								{
									OFFSET -0.750000 0.000000 0.000000
									CHANNELS 3 Zrotation Yrotation Xrotation
									End Site
									{
										OFFSET 0.000000 0.000000 0.000000
									}
								}
							}
						}
					}
				}
			}
		}
	}
}
MOTION
Frames: 8
Frame Time: 0.016667
-1.988980 16.852450 -1.778010 -5.371051 16.602301 -3.876647 -14.799057 11.854796 3.472316 4.548814 -2.806735 -30.881272 -2.437282 2.655328 3.176131 -1.101928 2.527036 3.935615 0.471260 0.067330 0.111520 18.735461 -11.460609 2.926472 2.994872 -2.352903 3.370147 4.755566 -6.665649 19.621011 -0.626486 -5.362423 2.841701 0.260770 0.615860 0.126390 -5.095339 0.820653 -7.845475 16.525049 1.734449 17.143486 -9.941401 5.792924 12.702811 1.360496 -5.470296 -8.155131 -11.321712 -2.221971 34.447669 7.520780 -10.905650 -10.887860 -15.097761 -18.567818 2.081724 -13.923438 -21.622959 -3.585110 54.722597 -71.506263 -36.660866 -3.374608 1.954254 0.505270 0.225930 -0.302630 0.389900 11.672721 24.114956 5.982672 8.199767 20.545034 -8.979065 -39.513149 69.344068 -23.462679 1.336318 -1.011938 -0.407370 0.521040 0.047500 -0.114700 
-2.007260 16.883510 -1.790150 -5.037904 17.788463 -4.418069 -14.820754 11.984164 3.477417 3.745572 -2.954777 -30.759894 -2.198873 2.707070 4.238372 -1.067692 2.452077 3.949930 0.463130 0.054850 0.093150 18.689902 -11.447439 2.943355 2.918736 -2.208399 3.255284 5.065370 -6.886038 20.637107 -0.653809 -5.390048 2.822931 0.224040 0.587900 0.124910 -5.050695 0.593907 -7.906965 16.205296 1.231607 18.845713 -10.306690 5.663222 12.412159 1.214288 -6.058783 -8.716590 -12.833839 -2.027963 35.156016 9.822770 -11.845810 -12.053790 -15.873140 -19.618820 2.473045 -14.413942 -21.581204 -4.341281 53.759421 -69.865995 -35.379739 -3.343406 2.019572 0.537120 0.173430 -0.271810 0.388100 12.669943 25.496125 6.563973 7.211902 19.038119 -9.983302 -38.223422 70.661724 -23.302417 1.386033 -1.016214 -0.383750 0.503010 0.047390 -0.100160 
-2.033150 16.931350 -1.792690 -5.226797 19.344671 -4.694214 -14.835697 12.054907 3.488631 3.412618 -3.132091 -31.572853 -1.952646 2.916887 6.644448 -1.049393 2.446892 3.941636 0.476860 0.069650 0.101430 18.667601 -11.431345 2.956249 3.605536 -1.952944 2.304850 5.067028 -7.011203 22.288425 -0.664714 -5.389841 2.821882 0.219350 0.566450 0.106730 -5.062370 0.487073 -7.924921 16.513163 0.465837 19.992619 -11.028976 5.315259 12.274280 1.414243 -6.650261 -9.042067 -14.031654 -2.002456 34.977628 11.085730 -12.452390 -13.293040 -16.846511 -19.791999 2.785614 -17.613741 -22.209994 -4.711993 55.877553 -66.990388 -35.728665 -3.310664 1.985214 0.553980 0.136790 -0.254800 0.392420 13.206768 26.003163 6.876415 7.985991 17.988224 -10.596713 -34.238998 72.799071 -22.140442 1.420232 -1.072579 -0.374750 0.510410 0.031070 -0.094400 
-2.065620 16.988150 -1.771450 -5.226352 21.674966 -5.007437 -14.895765 12.147306 3.534915 3.013685 -3.572375 -32.374115 -2.173223 3.348474 10.618249 -1.047175 2.621570 3.848445 0.486940 0.070250 0.128400 18.599753 -11.370427 2.971571 4.172269 -1.707785 1.384983 5.609938 -7.418718 24.037794 -0.700269 -5.461304 2.774863 0.212600 0.526360 0.117670 -4.971026 0.268391 -7.960783 15.705936 -0.339340 21.131126 -11.362869 4.695122 12.157885 1.797456 -6.158095 -9.314539 -13.203792 -2.323607 35.040952 11.022180 -12.137410 -14.538360 -17.509276 -20.008980 2.917453 -19.972154 -22.220201 -5.265846 56.728116 -65.995344 -36.217381 -3.294034 1.964552 0.597690 0.109790 -0.220540 0.379520 13.179603 25.764774 7.352810 10.944077 16.694395 -11.180904 -29.641600 76.571769 -21.681619 1.417149 -1.119127 -0.372820 0.496130 0.028340 -0.115820 
-2.103770 17.064820 -1.732170 -5.024735 22.854565 -5.256994 -14.943977 12.248639 3.546162 3.321198 -3.826727 -32.468188 -2.713837 4.003250 14.960764 -1.039561 3.048022 3.683901 0.469180 0.045500 0.149540 18.539032 -11.338311 2.975210 4.586042 -1.287255 0.338106 5.607783 -7.676229 26.154623 -0.720295 -5.520828 2.749090 0.208450 0.530110 0.089550 -4.865043 0.106180 -7.967720 14.579910 -0.516697 22.272109 -11.296033 4.679743 12.358412 1.904316 -5.903341 -9.548870 -12.768167 -2.461873 34.954520 11.865740 -11.937320 -16.487490 -17.538746 -19.794335 2.748708 -23.288012 -22.824740 -5.703889 53.954763 -65.304383 -34.685910 -3.302304 1.938618 0.652840 0.088650 -0.204350 0.358870 13.053508 25.406148 8.042768 14.206487 15.553583 -11.481174 -19.805470 80.022084 -17.324916 1.455480 -1.236814 -0.417270 0.557460 0.045440 -0.137230 
-2.139360 17.156740 -1.681030 -4.392175 24.398454 -5.795993 -15.017308 12.460422 3.553660 3.128745 -4.139008 -31.798959 -2.540099 4.625792 19.932293 -0.917153 3.535645 3.484988 0.449290 0.039310 0.145030 18.432998 -11.290276 2.993023 4.770894 -0.842740 -0.496365 5.487462 -7.972217 28.573660 -0.764741 -5.627736 2.723615 0.167980 0.494010 0.071080 -4.680249 -0.238004 -8.015634 12.728212 -0.541373 24.103614 -10.745157 4.767651 12.288467 1.847556 -5.818276 -10.472598 -13.179303 -2.422137 36.229929 13.185360 -12.058180 -17.535090 -18.047406 -19.958014 3.059901 -26.896517 -21.914396 -7.019397 51.137631 -66.461540 -34.381960 -3.254808 1.940668 0.683620 0.046680 -0.162130 0.350580 13.786287 25.720840 9.515372 17.623269 13.382659 -11.723847 -2.473026 82.653872 -6.266206 1.557446 -1.478702 -0.400300 0.554850 0.032860 -0.132130 
-2.165290 17.242860 -1.635870 -3.977430 25.889222 -6.196582 -15.072431 12.623158 3.556866 2.937750 -4.461620 -31.023402 -1.848656 5.086752 24.736729 -0.784188 4.089432 3.223009 0.459870 0.047490 0.158810 18.355096 -11.240882 3.008486 5.087157 -0.124269 -1.986876 5.287769 -8.314713 31.684375 -0.837257 -5.803461 2.628483 0.126090 0.412160 0.107840 -4.557904 -0.486660 -8.063024 11.581461 -0.631495 25.911490 -10.442676 4.851015 12.111093 1.854374 -5.992874 -11.360826 -14.077715 -2.495220 37.416942 14.610190 -12.318200 -19.489500 -18.541978 -19.874137 3.344293 -31.288501 -21.198471 -8.320062 46.987957 -67.469160 -33.272976 -3.208728 2.062960 0.725220 -0.014610 -0.095420 0.322150 14.377968 25.953436 10.937783 22.046505 11.560476 -11.974180 17.063929 83.711708 7.793298 1.645982 -1.669721 -0.337410 0.482950 0.030210 -0.134630 
-2.177640 17.310450 -1.587510 -4.096075 27.475527 -6.892360 -15.083119 12.707747 3.512149 3.336738 -4.718225 -29.981267 -0.858559 5.470160 29.634942 -0.636937 4.720173 2.948753 0.517660 0.102450 0.236060 18.330971 -11.214565 3.056493 5.370642 0.787340 -3.805270 5.932900 -9.285476 35.911682 -0.999487 -6.218177 2.464626 0.110180 0.288130 0.113140 -4.594791 -0.515010 -8.148314 11.600708 -1.335949 27.376045 -11.181264 4.412675 11.469561 2.195936 -5.640454 -12.184544 -14.272650 -2.117529 40.252009 15.090400 -11.631110 -21.235860 -19.810803 -20.004899 3.805406 -34.493278 -19.156007 -10.045073 41.039602 -68.982628 -31.044933 -3.123000 2.220240 0.797480 -0.102560 0.000210 0.313650 15.037953 25.779711 11.975535 27.896816 10.727488 -11.415194 37.064615 81.869154 21.821616 1.780016 -1.723897 -0.288520 0.424850 -0.029650 -0.161540 
